<svg width="125" height="136" viewBox="0 0 125 136" fill="none" xmlns="http://www.w3.org/2000/svg">
<g style="mix-blend-mode:hard-light" filter="url(#filter0_f_408_630)">
<ellipse cx="62.6053" cy="68.0532" rx="23.6053" ry="29.0532" fill="#FF922D" fill-opacity="0.237"/>
</g>
<g style="mix-blend-mode:hard-light" filter="url(#filter1_f_408_630)">
<path d="M69.6707 48.295V48.2949C69.6706 48.0415 69.73 47.7917 69.844 47.5655C69.9581 47.3393 70.1235 47.1431 70.3271 46.9926C70.5307 46.8421 70.7667 46.7415 71.0161 46.6989C71.2656 46.6564 71.5215 46.673 71.7634 46.7474L71.938 46.1799L71.7634 46.7474L94.268 53.6739C96.4072 54.3324 98.2791 55.6598 99.6087 57.4615C100.938 59.2631 101.656 61.444 101.655 63.6838V63.6839V74.8494C101.655 75.1025 101.595 75.352 101.481 75.5778C101.367 75.8035 101.201 75.9994 100.998 76.1495C100.794 76.2996 100.558 76.3999 100.309 76.4423C100.06 76.4847 99.8042 76.468 99.5626 76.3937L99.5626 76.3937L73.6743 68.427L72.9053 68.1904V68.995L72.9053 101.405C72.9053 101.405 72.9053 101.405 72.9053 101.405C72.9051 101.481 72.8996 101.557 72.889 101.633L72.8808 101.69L72.8841 101.749C73.062 104.955 72.1163 108.122 70.21 110.705C68.3037 113.288 65.5565 115.125 62.4421 115.898C59.3278 116.671 56.0415 116.332 53.15 114.94C50.2584 113.548 47.943 111.19 46.6029 108.272C45.2629 105.354 44.9823 102.06 45.8097 98.9578C46.6371 95.8553 48.5204 93.139 51.1349 91.2775C53.7494 89.4159 56.931 88.5256 60.1312 88.7602C63.3313 88.9947 66.3494 90.3393 68.6649 92.5623L69.6707 93.5278V92.1336V48.295Z" stroke="#FFAB2D" stroke-width="1.18847"/>
</g>
<g style="mix-blend-mode:hard-light" filter="url(#filter2_f_408_630)">
<path d="M69.8535 48.295V48.2949C69.8535 48.0701 69.9062 47.8485 70.0073 47.6478C70.1085 47.4471 70.2552 47.2731 70.4358 47.1396C70.6164 47.0061 70.8257 46.9169 71.0469 46.8792C71.2681 46.8414 71.4951 46.8561 71.7096 46.9222L71.9382 46.1795L71.7096 46.9222L94.2142 53.8487C96.316 54.4956 98.1552 55.7999 99.4616 57.5701C100.768 59.3403 101.473 61.4831 101.472 63.6838V63.6839V74.8491C101.472 75.0736 101.419 75.2949 101.318 75.4952C101.216 75.6955 101.07 75.8692 100.889 76.0023C100.709 76.1355 100.499 76.2244 100.278 76.262C100.057 76.2996 99.8307 76.2849 99.6164 76.2189L99.6163 76.2189L73.7281 68.2523L72.7224 67.9428V68.995L72.7224 101.404C72.7224 101.404 72.7224 101.405 72.7224 101.405C72.7223 101.473 72.7174 101.54 72.708 101.607L72.6973 101.683L72.7015 101.759C72.8771 104.922 71.9439 108.048 70.0629 110.597C68.1819 113.146 65.4711 114.957 62.3981 115.72C59.3251 116.483 56.0824 116.149 53.2293 114.775C50.3761 113.402 48.0913 111.075 46.7691 108.196C45.4468 105.317 45.17 102.066 45.9864 99.0049C46.8028 95.9435 48.6612 93.2633 51.241 91.4264C53.8207 89.5895 56.9601 88.7111 60.1178 88.9425C63.2754 89.1739 66.2535 90.5007 68.5383 92.6942L69.8535 93.9568V92.1336V48.295Z" stroke="#FFAB2D" stroke-width="1.55416"/>
</g>
<g style="mix-blend-mode:hard-light" filter="url(#filter3_ddi_408_630)">
<path d="M69.6707 48.295V48.2949C69.6706 48.0415 69.73 47.7917 69.844 47.5655C69.9581 47.3393 70.1235 47.1431 70.3271 46.9926C70.5307 46.8421 70.7667 46.7415 71.0161 46.6989C71.2656 46.6564 71.5215 46.673 71.7634 46.7474L71.938 46.1799L71.7634 46.7474L94.268 53.6739C96.4072 54.3324 98.2791 55.6598 99.6087 57.4615C100.938 59.2631 101.656 61.444 101.655 63.6838V63.6839V74.8494C101.655 75.1025 101.595 75.352 101.481 75.5778C101.367 75.8035 101.201 75.9994 100.998 76.1495C100.794 76.2996 100.558 76.3999 100.309 76.4423C100.06 76.4847 99.8042 76.468 99.5626 76.3937L99.5626 76.3937L73.6743 68.427L72.9053 68.1904V68.995L72.9053 101.405C72.9053 101.405 72.9053 101.405 72.9053 101.405C72.9051 101.481 72.8996 101.557 72.889 101.633L72.8808 101.69L72.8841 101.749C73.062 104.955 72.1163 108.122 70.21 110.705C68.3037 113.288 65.5565 115.125 62.4421 115.898C59.3278 116.671 56.0415 116.332 53.15 114.94C50.2584 113.548 47.943 111.19 46.6029 108.272C45.2629 105.354 44.9823 102.06 45.8097 98.9578C46.6371 95.8553 48.5204 93.139 51.1349 91.2775C53.7494 89.4159 56.931 88.5256 60.1312 88.7602C63.3313 88.9947 66.3494 90.3393 68.6649 92.5623L69.6707 93.5278V92.1336V48.295Z" stroke="#FFC940" stroke-opacity="0.2" stroke-width="1.18847"/>
</g>
<g filter="url(#filter4_f_408_630)">
<path d="M69.4421 48.295V48.295C69.4421 48.0058 69.5098 47.7207 69.6399 47.4626C69.7701 47.2045 69.9589 46.9805 70.1912 46.8088C70.4236 46.637 70.6929 46.5222 70.9777 46.4736C71.2624 46.425 71.5545 46.444 71.8306 46.529L71.9382 46.1795L71.8306 46.529L94.3352 53.4555C96.5212 54.1283 98.434 55.4848 99.7926 57.3258C101.151 59.1668 101.884 61.3952 101.884 63.6838V63.6839V74.8498C101.883 75.1386 101.815 75.4233 101.685 75.6809C101.554 75.9386 101.366 76.1621 101.133 76.3334C100.901 76.5047 100.632 76.6192 100.347 76.6676C100.063 76.716 99.7711 76.697 99.4954 76.6121L99.3878 76.9616L99.4953 76.6121L73.6071 68.6455L73.1338 68.4999V68.995L73.1338 101.405C73.1338 101.405 73.1338 101.406 73.1338 101.406C73.1336 101.492 73.1274 101.579 73.1153 101.665L73.1103 101.7L73.1123 101.736C73.2932 104.995 72.3317 108.215 70.3939 110.841C68.456 113.467 65.6632 115.334 62.4972 116.119C59.3311 116.905 55.9903 116.561 53.0508 115.146C50.1113 113.731 47.7575 111.333 46.3952 108.367C45.033 105.401 44.7478 102.053 45.5889 98.8989C46.4299 95.745 48.3445 92.9837 51.0023 91.0913C53.6602 89.1988 56.8946 88.2938 60.1479 88.5322C63.4011 88.7707 66.4693 90.1376 68.8232 92.3974L69.4421 92.9916V92.1336V48.295Z" stroke="#FFD56A" stroke-width="0.731367"/>
</g>
<g filter="url(#filter5_f_408_630)">
<path d="M69.2593 48.295V48.295C69.2592 47.9773 69.3337 47.664 69.4767 47.3803C69.6197 47.0966 69.8272 46.8505 70.0825 46.6618C70.3379 46.473 70.634 46.3468 70.9469 46.2934C71.2598 46.24 71.581 46.2608 71.8844 46.3542L71.9382 46.1795L71.8844 46.3542L94.389 53.2808C96.6123 53.9651 98.5578 55.3448 99.9398 57.2172C101.322 59.0896 102.067 61.3562 102.067 63.6839V74.8501C102.066 75.1675 101.991 75.4803 101.848 75.7635C101.705 76.0466 101.497 76.2922 101.242 76.4805C100.987 76.6688 100.691 76.7947 100.378 76.8479C100.065 76.901 99.7447 76.8802 99.4416 76.7869L99.3878 76.9616L99.4416 76.7869L73.5533 68.8202L73.3167 68.7474V68.995V101.405C73.3165 101.501 73.3097 101.596 73.2964 101.69L73.2938 101.708L73.2948 101.726C73.4781 105.028 72.5041 108.29 70.541 110.95C68.5779 113.61 65.7486 115.501 62.5412 116.297C59.3338 117.093 55.9494 116.744 52.9715 115.311C49.9936 113.877 47.6091 111.448 46.2291 108.444C44.8491 105.439 44.5602 102.047 45.4122 98.8517C46.2642 95.6568 48.2038 92.8595 50.8963 90.9423C53.5888 89.0252 56.8655 88.1083 60.1612 88.3499C63.457 88.5914 66.5652 89.9762 68.9498 92.2655L69.2593 92.5626V92.1336V48.295Z" stroke="white" stroke-width="0.365684"/>
</g>
<defs>
<filter id="filter0_f_408_630" x="0.541576" y="0.541576" width="124.127" height="135.023" filterUnits="userSpaceOnUse" color-interpolation-filters="sRGB">
<feFlood flood-opacity="0" result="BackgroundImageFix"/>
<feBlend mode="normal" in="SourceGraphic" in2="BackgroundImageFix" result="shape"/>
<feGaussianBlur stdDeviation="19.2292" result="effect1_foregroundBlur_408_630"/>
</filter>
<filter id="filter1_f_408_630" x="38.2495" y="39.5816" width="70.5001" height="83.8159" filterUnits="userSpaceOnUse" color-interpolation-filters="sRGB">
<feFlood flood-opacity="0" result="BackgroundImageFix"/>
<feBlend mode="normal" in="SourceGraphic" in2="BackgroundImageFix" result="shape"/>
<feGaussianBlur stdDeviation="3.25001" result="effect1_foregroundBlur_408_630"/>
</filter>
<filter id="filter2_f_408_630" x="42.5828" y="43.915" width="61.8334" height="75.1491" filterUnits="userSpaceOnUse" color-interpolation-filters="sRGB">
<feFlood flood-opacity="0" result="BackgroundImageFix"/>
<feBlend mode="normal" in="SourceGraphic" in2="BackgroundImageFix" result="shape"/>
<feGaussianBlur stdDeviation="1.08334" result="effect1_foregroundBlur_408_630"/>
</filter>
<filter id="filter3_ddi_408_630" x="41.9328" y="45.4317" width="63.1334" height="76.4492" filterUnits="userSpaceOnUse" color-interpolation-filters="sRGB">
<feFlood flood-opacity="0" result="BackgroundImageFix"/>
<feColorMatrix in="SourceAlpha" type="matrix" values="0 0 0 0 0 0 0 0 0 0 0 0 0 0 0 0 0 0 127 0" result="hardAlpha"/>
<feOffset dy="1.18847"/>
<feGaussianBlur stdDeviation="0.457105"/>
<feColorMatrix type="matrix" values="0 0 0 0 0.224 0 0 0 0 0.15 0 0 0 0 0 0 0 0 0.7 0"/>
<feBlend mode="multiply" in2="BackgroundImageFix" result="effect1_dropShadow_408_630"/>
<feColorMatrix in="SourceAlpha" type="matrix" values="0 0 0 0 0 0 0 0 0 0 0 0 0 0 0 0 0 0 127 0" result="hardAlpha"/>
<feOffset dy="2.16668"/>
<feGaussianBlur stdDeviation="1.40834"/>
<feColorMatrix type="matrix" values="0 0 0 0 0.56 0 0 0 0 0.44 0 0 0 0 0 0 0 0 1 0"/>
<feBlend mode="color-dodge" in2="effect1_dropShadow_408_630" result="effect2_dropShadow_408_630"/>
<feBlend mode="normal" in="SourceGraphic" in2="effect2_dropShadow_408_630" result="shape"/>
<feColorMatrix in="SourceAlpha" type="matrix" values="0 0 0 0 0 0 0 0 0 0 0 0 0 0 0 0 0 0 127 0" result="hardAlpha"/>
<feOffset dx="-0.118847" dy="0.237694"/>
<feGaussianBlur stdDeviation="0.0594236"/>
<feComposite in2="hardAlpha" operator="arithmetic" k2="-1" k3="1"/>
<feColorMatrix type="matrix" values="0 0 0 0 1 0 0 0 0 1 0 0 0 0 1 0 0 0 0.5 0"/>
<feBlend mode="normal" in2="shape" result="effect3_innerShadow_408_630"/>
</filter>
<filter id="filter4_f_408_630" x="44.5667" y="45.8988" width="57.8657" height="71.1815" filterUnits="userSpaceOnUse" color-interpolation-filters="sRGB">
<feFlood flood-opacity="0" result="BackgroundImageFix"/>
<feBlend mode="normal" in="SourceGraphic" in2="BackgroundImageFix" result="shape"/>
<feGaussianBlur stdDeviation="0.0914209" result="effect1_foregroundBlur_408_630"/>
</filter>
<filter id="filter5_f_408_630" x="44.6276" y="45.9598" width="57.7438" height="71.0596" filterUnits="userSpaceOnUse" color-interpolation-filters="sRGB">
<feFlood flood-opacity="0" result="BackgroundImageFix"/>
<feBlend mode="normal" in="SourceGraphic" in2="BackgroundImageFix" result="shape"/>
<feGaussianBlur stdDeviation="0.0609473" result="effect1_foregroundBlur_408_630"/>
</filter>
</defs>
</svg>
