<svg width="91" height="90" viewBox="0 0 91 90" fill="none" xmlns="http://www.w3.org/2000/svg">
<path d="M85.8411 16.875H74.5609V5.625H68.9208V16.875H57.6406V22.5H68.9208V33.75H74.5609V22.5H85.8411V16.875Z" fill="#363843"/>
<path d="M68.9208 42.1875V63.4388C67.2139 62.426 65.2668 61.8861 63.2807 61.875C61.0497 61.875 58.8688 62.5348 57.0138 63.771C55.1587 65.0071 53.7129 66.7641 52.8591 68.8198C52.0054 70.8755 51.782 73.1375 52.2172 75.3198C52.6525 77.5021 53.7268 79.5066 55.3044 81.08C56.882 82.6533 58.8919 83.7248 61.08 84.1588C63.2682 84.5929 65.5363 84.3701 67.5975 83.5187C69.6586 82.6672 71.4204 81.2252 72.6599 79.3752C73.8993 77.5251 74.5609 75.35 74.5609 73.125V42.1875H68.9208ZM63.2807 78.75C62.1652 78.75 61.0747 78.4201 60.1472 77.802C59.2197 77.1839 58.4968 76.3054 58.0699 75.2776C57.643 74.2498 57.5313 73.1188 57.749 72.0276C57.9666 70.9365 58.5038 69.9342 59.2925 69.1475C60.0813 68.3609 61.0863 67.8251 62.1804 67.6081C63.2744 67.391 64.4085 67.5024 65.4391 67.9282C66.4697 68.3539 67.3505 69.0749 67.9703 69.9999C68.59 70.9249 68.9208 72.0125 68.9208 73.125C68.9186 74.6162 68.3236 76.0456 67.2664 77.1C66.2092 78.1544 64.7759 78.7478 63.2807 78.75Z" fill="#F9A11B"/>
<path d="M49.1807 16.875H29.4403C27.9449 16.8765 26.5112 17.4696 25.4538 18.5242C24.3964 19.5787 23.8017 21.0086 23.8002 22.5V63.4388C22.0933 62.4261 20.1462 61.8862 18.1601 61.875C15.9291 61.875 13.7482 62.5348 11.8931 63.771C10.0381 65.0071 8.59231 66.7641 7.73854 68.8198C6.88477 70.8755 6.66138 73.1375 7.09663 75.3198C7.53188 77.5021 8.60622 79.5066 10.1838 81.0799C11.7613 82.6533 13.7713 83.7248 15.9594 84.1588C18.1476 84.5929 20.4157 84.3701 22.4768 83.5186C24.538 82.6672 26.2998 81.2252 27.5392 79.3752C28.7787 77.5251 29.4403 75.35 29.4403 73.125V22.5H49.1807V16.875ZM18.1601 78.75C17.0446 78.75 15.9541 78.4201 15.0266 77.802C14.0991 77.1839 13.3762 76.3054 12.9493 75.2776C12.5224 74.2498 12.4107 73.1188 12.6284 72.0276C12.846 70.9365 13.3832 69.9342 14.1719 69.1475C14.9607 68.3609 15.9657 67.8251 17.0598 67.6081C18.1538 67.391 19.2879 67.5024 20.3185 67.9282C21.3491 68.3539 22.2299 69.0749 22.8497 69.9999C23.4694 70.9249 23.8002 72.0125 23.8002 73.125C23.7987 74.6164 23.204 76.0463 22.1466 77.1008C21.0892 78.1554 19.6555 78.7485 18.1601 78.75Z" fill="#F9A11B"/>
</svg>
