<svg width="80" height="80" viewBox="0 0 80 80" fill="none" xmlns="http://www.w3.org/2000/svg">
<path fill-rule="evenodd" clip-rule="evenodd" d="M26.6666 36.6667C30.2028 36.6667 33.5942 35.2619 36.0947 32.7614C38.5952 30.2609 39.9999 26.8696 39.9999 23.3333C39.9999 19.7971 38.5952 16.4057 36.0947 13.9052C33.5942 11.4048 30.2028 10 26.6666 10C23.1304 10 19.739 11.4048 17.2385 13.9052C14.738 16.4057 13.3333 19.7971 13.3333 23.3333C13.3333 26.8696 14.738 30.2609 17.2385 32.7614C19.739 35.2619 23.1304 36.6667 26.6666 36.6667ZM26.6666 30C28.4347 30 30.1304 29.2976 31.3806 28.0474C32.6309 26.7971 33.3333 25.1014 33.3333 23.3333C33.3333 21.5652 32.6309 19.8695 31.3806 18.6193C30.1304 17.369 28.4347 16.6667 26.6666 16.6667C24.8985 16.6667 23.2028 17.369 21.9525 18.6193C20.7023 19.8695 19.9999 21.5652 19.9999 23.3333C19.9999 25.1014 20.7023 26.7971 21.9525 28.0474C23.2028 29.2976 24.8985 30 26.6666 30Z" fill="#F9A11B"/>
<path d="M36.667 46.6667C37.551 46.6667 38.3989 47.0179 39.024 47.643C39.6491 48.2681 40.0003 49.1159 40.0003 50V70H46.667V50C46.667 47.3478 45.6134 44.8043 43.7381 42.9289C41.8627 41.0536 39.3192 40 36.667 40H16.667C14.0148 40 11.4713 41.0536 9.59592 42.9289C7.72056 44.8043 6.66699 47.3478 6.66699 50V70H13.3337V50C13.3337 49.1159 13.6848 48.2681 14.31 47.643C14.9351 47.0179 15.7829 46.6667 16.667 46.6667H36.667Z" fill="#F9A11B"/>
<path d="M73.3333 36.6665H53.3333V43.3332H73.3333V36.6665Z" fill="#363843"/>
<path d="M53.3333 50H73.3333V56.6667H53.3333V50Z" fill="#363843"/>
<path d="M73.3333 23.3335H53.3333V30.0002H73.3333V23.3335Z" fill="#363843"/>
</svg>
