<svg width="85" height="85" viewBox="0 0 85 85" fill="none" xmlns="http://www.w3.org/2000/svg">
<path d="M42.5 55.7812C45.434 55.7812 47.8125 53.4028 47.8125 50.4688C47.8125 47.5347 45.434 45.1562 42.5 45.1562C39.566 45.1562 37.1875 47.5347 37.1875 50.4688C37.1875 53.4028 39.566 55.7812 42.5 55.7812Z" fill="#363843"/>
<path d="M63.1577 49.0848C61.5164 44.9036 58.6843 41.2959 55.0122 38.7089C51.3402 36.1219 46.9897 34.6693 42.5 34.5312C38.0103 34.6693 33.6598 36.1219 29.9878 38.7089C26.3157 41.2959 23.4836 44.9036 21.8423 49.0848L21.25 50.4688L21.8423 51.8527C23.4836 56.0339 26.3157 59.6416 29.9878 62.2286C33.6598 64.8156 38.0103 66.2682 42.5 66.4062C46.9897 66.2682 51.3402 64.8156 55.0122 62.2286C58.6843 59.6416 61.5164 56.0339 63.1577 51.8527L63.75 50.4688L63.1577 49.0848ZM42.5 61.0938C40.3986 61.0938 38.3443 60.4706 36.5971 59.3031C34.8498 58.1356 33.488 56.4762 32.6838 54.5348C31.8796 52.5933 31.6692 50.457 32.0792 48.3959C32.4891 46.3349 33.5011 44.4417 34.987 42.9557C36.4729 41.4698 38.3661 40.4579 40.4272 40.0479C42.4882 39.6379 44.6245 39.8483 46.566 40.6525C48.5075 41.4567 50.1669 42.8185 51.3344 44.5658C52.5019 46.3131 53.125 48.3673 53.125 50.4688C53.1215 53.2856 52.0009 55.9861 50.0091 57.9779C48.0173 59.9697 45.3168 61.0902 42.5 61.0938Z" fill="#363843"/>
<path d="M71.7188 7.96875H13.2812C11.8723 7.96875 10.521 8.52846 9.52474 9.52474C8.52846 10.521 7.96875 11.8723 7.96875 13.2812V71.7188C7.96875 73.1277 8.52846 74.479 9.52474 75.4753C10.521 76.4715 11.8723 77.0312 13.2812 77.0312H71.7188C73.1277 77.0312 74.479 76.4715 75.4753 75.4753C76.4715 74.479 77.0312 73.1277 77.0312 71.7188V13.2812C77.0312 11.8723 76.4715 10.521 75.4753 9.52474C74.479 8.52846 73.1277 7.96875 71.7188 7.96875ZM13.2812 13.2812H71.7188V23.9062H13.2812V13.2812ZM13.2812 71.7188V29.2188H71.7188V71.7188H13.2812Z" fill="#F9A11B"/>
</svg>
