<svg width="28" height="24" viewBox="0 0 28 24" fill="none" xmlns="http://www.w3.org/2000/svg">
<path d="M25.6666 10.3334H5.89996L11.95 3.06669C12.2329 2.72633 12.369 2.28753 12.3283 1.84682C12.2877 1.40611 12.0737 0.999586 11.7333 0.716689C11.3929 0.433791 10.9541 0.297688 10.5134 0.338321C10.0727 0.378954 9.66619 0.592994 9.38329 0.933356L1.04996 10.9334C0.993894 11.0129 0.943758 11.0965 0.899959 11.1834C0.899959 11.2667 0.89996 11.3167 0.783293 11.4C0.707749 11.5911 0.668195 11.7945 0.666626 12C0.668195 12.2055 0.707749 12.4089 0.783293 12.6C0.783293 12.6834 0.783292 12.7334 0.899959 12.8167C0.943758 12.9036 0.993894 12.9871 1.04996 13.0667L9.38329 23.0667C9.54 23.2548 9.73623 23.4061 9.95804 23.5098C10.1798 23.6135 10.4218 23.6671 10.6666 23.6667C11.056 23.6674 11.4334 23.5318 11.7333 23.2834C11.9021 23.1434 12.0416 22.9716 12.1438 22.7777C12.2461 22.5838 12.3091 22.3716 12.3292 22.1533C12.3493 21.935 12.3262 21.7149 12.2611 21.5056C12.196 21.2962 12.0903 21.1018 11.95 20.9334L5.89996 13.6667H25.6666C26.1087 13.6667 26.5326 13.4911 26.8451 13.1785C27.1577 12.866 27.3333 12.442 27.3333 12C27.3333 11.558 27.1577 11.1341 26.8451 10.8215C26.5326 10.509 26.1087 10.3334 25.6666 10.3334Z" fill="#f9a11b"/>
</svg>
