<svg width="31" height="36" viewBox="0 0 31 36" fill="none" xmlns="http://www.w3.org/2000/svg">
<path d="M15.9296 30.9295C15.9296 31.8129 16.0796 32.6462 16.3629 33.4295H4.26294C2.41294 33.4295 0.929611 31.9462 0.929611 30.0962V3.42952C0.929611 2.54547 1.2808 1.69762 1.90592 1.0725C2.53104 0.447381 3.37889 0.0961914 4.26294 0.0961914H5.92961V11.7629L10.0963 9.26286L14.2629 11.7629V0.0961914H24.2629C25.147 0.0961914 25.9948 0.447381 26.62 1.0725C27.2451 1.69762 27.5963 2.54547 27.5963 3.42952V15.0962H21.7629V23.6129C18.4296 24.3795 15.9296 27.3629 15.9296 30.9295ZM27.5963 18.4295H25.0963V27.1129C24.5285 26.8642 23.9124 26.7453 23.2929 26.7649C22.6733 26.7846 22.066 26.9421 21.5151 27.2262C20.9642 27.5103 20.4836 27.9137 20.1083 28.4071C19.7331 28.9004 19.4726 29.4713 19.346 30.078C19.2193 30.6848 19.2296 31.3122 19.3761 31.9144C19.5226 32.5167 19.8017 33.0787 20.1929 33.5595C20.5841 34.0402 21.0777 34.4277 21.6376 34.6935C22.1976 34.9594 22.8098 35.0969 23.4296 35.0962C24.5347 35.0962 25.5945 34.6572 26.3759 33.8758C27.1573 33.0944 27.5963 32.0346 27.5963 30.9295V21.7629H30.9296V18.4295H27.5963Z" fill="white"/>
</svg>
