<svg width="26" height="28" viewBox="0 0 26 28" fill="none" xmlns="http://www.w3.org/2000/svg">
<path d="M23.0963 2.22563C23.5907 2.22563 24.0741 2.37225 24.4852 2.64695C24.8963 2.92166 25.2168 3.3121 25.406 3.76892C25.5952 4.22573 25.6447 4.7284 25.5482 5.21335C25.4518 5.6983 25.2137 6.14376 24.864 6.49339C24.5144 6.84302 24.0689 7.08113 23.584 7.17759C23.099 7.27405 22.5964 7.22454 22.1396 7.03533C21.6827 6.84611 21.2923 6.52567 21.0176 6.11455C20.7429 5.70343 20.5963 5.22008 20.5963 4.72563C20.5963 4.06259 20.8597 3.4267 21.3285 2.95786C21.7973 2.48902 22.4332 2.22563 23.0963 2.22563ZM23.0963 12.2256C23.5907 12.2256 24.0741 12.3722 24.4852 12.647C24.8963 12.9217 25.2168 13.3121 25.406 13.7689C25.5952 14.2257 25.6447 14.7284 25.5482 15.2134C25.4518 15.6983 25.2137 16.1438 24.864 16.4934C24.5144 16.843 24.0689 17.0811 23.584 17.1776C23.099 17.2741 22.5964 17.2245 22.1396 17.0353C21.6827 16.8461 21.2923 16.5257 21.0176 16.1145C20.7429 15.7034 20.5963 15.2201 20.5963 14.7256C20.5963 14.0626 20.8597 13.4267 21.3285 12.9579C21.7973 12.489 22.4332 12.2256 23.0963 12.2256ZM8.9296 0.55896C6.71946 0.55896 4.59985 1.43693 3.03705 2.99974C1.47424 4.56254 0.596268 6.68216 0.596268 8.89229V10.559C0.598889 11.2049 0.789111 11.8361 1.1438 12.3759C1.4985 12.9157 2.00238 13.3408 2.59419 13.5996C3.186 13.8583 3.84024 13.9396 4.47737 13.8334C5.1145 13.7273 5.70706 13.4383 6.18301 13.0017C6.65896 12.565 6.9978 11.9995 7.15833 11.3739C7.31885 10.7482 7.29415 10.0894 7.08722 9.47754C6.88029 8.86568 6.50006 8.32711 5.99274 7.92733C5.48543 7.52754 4.87289 7.28376 4.2296 7.22563C4.57346 6.25304 5.20972 5.41062 6.05116 4.81386C6.8926 4.21709 7.89803 3.89519 8.9296 3.89229C10.6977 3.89229 12.3934 4.59467 13.6436 5.84491C14.8939 7.09516 15.5963 8.79085 15.5963 10.559C15.5963 16.5423 11.8796 20.8756 3.9296 24.2256L5.19627 27.2923C14.4463 23.4256 18.9296 17.9423 18.9296 10.559C18.9296 7.90679 17.876 5.36326 16.0007 3.48789C14.1253 1.61253 11.5818 0.55896 8.9296 0.55896Z" fill="white"/>
</svg>
