<svg width="35" height="35" viewBox="0 0 35 35" fill="none" xmlns="http://www.w3.org/2000/svg">
<path d="M26.3761 27.7973L27.4685 26.7122C32.5228 26.8772 32.6005 26.7 32.8226 26.1805L34.2112 22.8001L34.3144 22.4796L34.2015 22.1992C34.142 22.0511 33.9587 21.6093 30.8028 18.6003V17.0175C34.4442 13.5096 34.3666 13.33 34.159 12.8165L32.7765 9.4009C32.5689 8.88867 32.49 8.68839 27.4722 8.82555L26.3797 7.69672C26.4925 6.03393 26.4352 4.36397 26.2086 2.71284L26.0678 2.39361L22.4579 0.815665C21.9263 0.572905 21.7394 0.485511 18.331 4.19732L16.7992 4.17426C13.2901 0.428462 13.1238 0.496435 12.5982 0.708851L9.24206 2.06588C8.71648 2.2783 8.53077 2.35355 8.73469 7.45153L7.65076 8.53181C2.59891 8.36673 2.52123 8.54638 2.30153 9.06346L0.910512 12.4451L0.80127 12.7692L0.915367 13.0508C0.974843 13.1965 1.15085 13.6334 4.31402 16.6461V18.224C0.672607 21.7319 0.751504 21.9116 0.960278 22.4262L2.34159 25.8455C2.55279 26.3687 2.62804 26.5544 7.64469 26.4233L8.73711 27.5582C8.62388 29.2184 8.6796 30.8858 8.90341 32.5348L9.04421 32.8564L12.6771 34.4441C13.2051 34.665 13.3884 34.7439 16.7871 31.0454L18.3189 31.0649C21.8328 34.8155 22.0125 34.7427 22.5259 34.5351L25.8748 33.1817C26.404 32.9717 26.5885 32.8977 26.3761 27.7973ZM11.9828 19.8784C11.5593 18.7715 11.4721 17.5642 11.7322 16.4079C11.9922 15.2516 12.588 14.1978 13.4448 13.3789C14.3015 12.5599 15.381 12.0122 16.5479 11.8045C17.7147 11.5968 18.9169 11.7383 20.0036 12.2113C21.0903 12.6844 22.0131 13.4678 22.6563 14.4633C23.2994 15.4588 23.6342 16.6221 23.6186 17.8072C23.6031 18.9923 23.2379 20.1464 22.5688 21.1247C21.8998 22.103 20.9567 22.8619 19.858 23.3062C18.3588 23.8925 16.6885 23.8609 15.2126 23.2185C13.7367 22.5761 12.5753 21.3751 11.9828 19.8784Z" fill="white"/>
</svg>
