<svg width="14" height="21" viewBox="0 0 14 21" fill="none" xmlns="http://www.w3.org/2000/svg">
<path d="M2 3.06153V19.5023H0V1.12732H6V3.06153H2Z" fill="white"/>
<path fill-rule="evenodd" clip-rule="evenodd" d="M4.5 0.44751C4.22386 0.44751 4 0.671368 4 0.947511V19.6825C4 19.9587 4.22386 20.1825 4.5 20.1825H13.5C13.7761 20.1825 14 19.9587 14 19.6825V0.94751C14 0.671367 13.7761 0.44751 13.5 0.44751H4.5ZM8.16655 9.85238C8.16655 10.6186 7.6069 11.2397 6.91655 11.2397C6.22619 11.2397 5.66655 10.6186 5.66655 9.85238C5.66655 9.08618 6.22619 8.46506 6.91655 8.46506C7.6069 8.46506 8.16655 9.08618 8.16655 9.85238Z" fill="white"/>
<path fill-rule="evenodd" clip-rule="evenodd" d="M4.5 0.44751C4.22386 0.44751 4 0.671368 4 0.947511V19.6825C4 19.9587 4.22386 20.1825 4.5 20.1825H13.5C13.7761 20.1825 14 19.9587 14 19.6825V0.94751C14 0.671367 13.7761 0.44751 13.5 0.44751H4.5ZM8.16655 9.85238C8.16655 10.6186 7.6069 11.2397 6.91655 11.2397C6.22619 11.2397 5.66655 10.6186 5.66655 9.85238C5.66655 9.08618 6.22619 8.46506 6.91655 8.46506C7.6069 8.46506 8.16655 9.08618 8.16655 9.85238Z" fill="url(#paint0_linear_433_1163)"/>
<defs>
<linearGradient id="paint0_linear_433_1163" x1="14.3801" y1="-0.743398" x2="3.83227" y2="-0.405764" gradientUnits="userSpaceOnUse">
<stop offset="0.234375" stop-color="#F5691A"/>
<stop offset="0.995667" stop-color="#FFD643"/>
</linearGradient>
</defs>
</svg>
