<svg width="10" height="16" viewBox="0 0 10 16" fill="none" xmlns="http://www.w3.org/2000/svg">
<path d="M8.56969 8.9995L9.01419 6.104H6.23569V4.225C6.23569 3.433 6.62369 2.6605 7.86819 2.6605H9.1312V0.1955C9.1312 0.1955 7.98519 0 6.88919 0C4.60119 0 3.10569 1.387 3.10569 3.8975V6.1045H0.562195V9H3.10569V16H6.23569V9L8.56969 8.9995Z" fill="white"/>
<path d="M8.56969 8.9995L9.01419 6.104H6.23569V4.225C6.23569 3.433 6.62369 2.6605 7.86819 2.6605H9.1312V0.1955C9.1312 0.1955 7.98519 0 6.88919 0C4.60119 0 3.10569 1.387 3.10569 3.8975V6.1045H0.562195V9H3.10569V16H6.23569V9L8.56969 8.9995Z" fill="url(#paint0_linear_1504_136)"/>
<defs>
<linearGradient id="paint0_linear_1504_136" x1="9.45692" y1="-0.96552" x2="0.41955" y2="-0.659766" gradientUnits="userSpaceOnUse">
<stop offset="0.234375" stop-color="#F5691A"/>
<stop offset="0.995667" stop-color="#FFD643"/>
</linearGradient>
</defs>
</svg>
