<svg width="30" height="30" viewBox="0 0 30 30" fill="none" xmlns="http://www.w3.org/2000/svg">
<path d="M5.36625 13.3838L14.1163 4.63375C14.3507 4.39941 14.6685 4.26777 15 4.26777C15.3315 4.26777 15.6493 4.39941 15.8837 4.63375L24.6338 13.3838C24.8682 13.6181 24.9999 13.936 25 14.2675V26.25C25 26.5815 24.8683 26.8995 24.6339 27.1339C24.3995 27.3683 24.0815 27.5 23.75 27.5H17.5V18.75H12.5V27.5H6.25C5.91848 27.5 5.60054 27.3683 5.36612 27.1339C5.1317 26.8995 5 26.5815 5 26.25V14.2675C5.00007 13.936 5.13181 13.6181 5.36625 13.3838Z" fill="white"/>
</svg>
