<svg width="30" height="30" viewBox="0 0 30 30" fill="none" xmlns="http://www.w3.org/2000/svg">
<path d="M5.36625 13.3838L14.1163 4.63381C14.3507 4.39947 14.6685 4.26782 15 4.26782C15.3315 4.26782 15.6493 4.39947 15.8837 4.63381L24.6338 13.3838C24.8682 13.6182 24.9999 13.9361 25 14.2676V26.2501C25 26.5816 24.8683 26.8995 24.6339 27.1339C24.3995 27.3684 24.0815 27.5001 23.75 27.5001H17.5V18.7501H12.5V27.5001H6.25C5.91848 27.5001 5.60054 27.3684 5.36612 27.1339C5.1317 26.8995 5 26.5816 5 26.2501V14.2676C5.00007 13.9361 5.13181 13.6182 5.36625 13.3838Z" fill="#F9A11B"/>
</svg>
