<svg width="17" height="16" viewBox="0 0 17 16" fill="none" xmlns="http://www.w3.org/2000/svg">
<path d="M8.13116 0C5.95639 0 5.68536 0.0105013 4.83425 0.0465058C3.97965 0.0885111 3.40157 0.221028 2.89151 0.419052C2.35767 0.620588 1.87421 0.936125 1.47483 1.34367C1.06615 1.74212 0.75044 2.22584 0.550217 2.76035C0.352192 3.27041 0.219676 3.84848 0.17767 4.70309C0.139166 5.55469 0.131165 5.82523 0.131165 8C0.131165 10.1748 0.141666 10.4458 0.17767 11.2969C0.219676 12.149 0.352192 12.7296 0.550217 13.2397C0.751752 13.7735 1.06729 14.257 1.47483 14.6563C1.87328 15.065 2.35701 15.3807 2.89151 15.5809C3.40157 15.7765 3.98215 15.9115 4.83425 15.9535C5.68586 15.992 5.95639 16 8.13116 16C10.3059 16 10.577 15.9895 11.4281 15.9535C12.2802 15.9115 12.8608 15.776 13.3708 15.5809C13.9047 15.3794 14.3881 15.0639 14.7875 14.6563C15.1967 14.2583 15.5125 13.7745 15.7121 13.2397C15.9076 12.7296 16.0427 12.149 16.0847 11.2969C16.1232 10.4453 16.1312 10.1748 16.1312 8C16.1312 5.82523 16.1207 5.55419 16.0847 4.70309C16.0427 3.85098 15.9071 3.26741 15.7121 2.76035C15.5106 2.22651 15.195 1.74305 14.7875 1.34367C14.3895 0.934462 13.9056 0.618667 13.3708 0.419052C12.8608 0.221028 12.2802 0.0885111 11.4281 0.0465058C10.5765 0.008001 10.3059 0 8.13116 0ZM8.13116 1.44018C10.2669 1.44018 10.522 1.45068 11.3661 1.48669C12.1447 1.52319 12.5687 1.65321 12.8503 1.76322C13.1983 1.8917 13.5133 2.09619 13.7724 2.3618C14.0375 2.61974 14.2412 2.93404 14.3684 3.28141C14.4785 3.56295 14.6085 3.987 14.645 4.7656C14.681 5.6097 14.6915 5.86523 14.6915 8.0005C14.6915 10.1358 14.681 10.3913 14.642 11.2354C14.6 12.014 14.47 12.4381 14.3604 12.7196C14.2089 13.0951 14.0399 13.3577 13.7609 13.6417C13.501 13.9056 13.1861 14.1092 12.8388 14.2378C12.5607 14.3478 12.1307 14.4778 11.3491 14.5143C10.5005 14.5503 10.2504 14.5608 8.10916 14.5608C5.96789 14.5608 5.71836 14.5503 4.86876 14.5113C4.09016 14.4693 3.66061 14.3393 3.37907 14.2298C2.99902 14.0783 2.73849 13.9092 2.45946 13.6302C2.17792 13.3487 1.9989 13.0806 1.86088 12.7081C1.74887 12.4301 1.62085 12 1.57935 11.2184C1.55084 10.3798 1.53734 10.1198 1.53734 7.9885C1.53734 5.85823 1.55084 5.5977 1.57935 4.74859C1.62085 3.967 1.74887 3.53794 1.86088 3.25891C1.9989 2.87836 2.17842 2.61833 2.45946 2.33679C2.73799 2.05826 2.99902 1.87823 3.37907 1.73722C3.66061 1.6277 4.07966 1.49769 4.86126 1.45868C5.70986 1.42818 5.95989 1.41718 8.09816 1.41718L8.13116 1.44018ZM8.13116 3.89399C7.59177 3.89379 7.05762 3.99989 6.55925 4.20621C6.06087 4.41254 5.60804 4.71505 5.22663 5.09646C4.84522 5.47787 4.5427 5.93071 4.33638 6.42908C4.13005 6.92746 4.02395 7.4616 4.02415 8.001C4.02395 8.5404 4.13005 9.07454 4.33638 9.57292C4.5427 10.0713 4.84522 10.5241 5.22663 10.9055C5.60804 11.2869 6.06087 11.5895 6.55925 11.7958C7.05762 12.0021 7.59177 12.1082 8.13116 12.108C8.67056 12.1082 9.20471 12.0021 9.70308 11.7958C10.2015 11.5895 10.6543 11.2869 11.0357 10.9055C11.4171 10.5241 11.7196 10.0713 11.926 9.57292C12.1323 9.07454 12.2384 8.5404 12.2382 8.001C12.2384 7.4616 12.1323 6.92746 11.926 6.42908C11.7196 5.93071 11.4171 5.47787 11.0357 5.09646C10.6543 4.71505 10.2015 4.41254 9.70308 4.20621C9.20471 3.99989 8.67056 3.89379 8.13116 3.89399ZM8.13116 10.6678C6.65698 10.6678 5.46433 9.47518 5.46433 8.001C5.46433 6.52682 6.65698 5.33417 8.13116 5.33417C9.60535 5.33417 10.798 6.52682 10.798 8.001C10.798 9.47518 9.60535 10.6678 8.13116 10.6678ZM13.3638 3.72997C13.3636 3.98483 13.2621 4.22917 13.0818 4.40929C12.9015 4.58941 12.6571 4.69059 12.4022 4.69059C12.2762 4.69059 12.1514 4.66577 12.035 4.61754C11.9185 4.56931 11.8128 4.49863 11.7236 4.40952C11.6345 4.32041 11.5639 4.21462 11.5156 4.0982C11.4674 3.98177 11.4426 3.85699 11.4426 3.73097C11.4426 3.60495 11.4674 3.48016 11.5156 3.36374C11.5639 3.24731 11.6345 3.14152 11.7236 3.05241C11.8128 2.9633 11.9185 2.89262 12.035 2.84439C12.1514 2.79617 12.2762 2.77135 12.4022 2.77135C12.9308 2.77135 13.3638 3.2014 13.3638 3.72997Z" fill="white"/>
<path d="M8.13116 0C5.95639 0 5.68536 0.0105013 4.83425 0.0465058C3.97965 0.0885111 3.40157 0.221028 2.89151 0.419052C2.35767 0.620588 1.87421 0.936125 1.47483 1.34367C1.06615 1.74212 0.75044 2.22584 0.550217 2.76035C0.352192 3.27041 0.219676 3.84848 0.17767 4.70309C0.139166 5.55469 0.131165 5.82523 0.131165 8C0.131165 10.1748 0.141666 10.4458 0.17767 11.2969C0.219676 12.149 0.352192 12.7296 0.550217 13.2397C0.751752 13.7735 1.06729 14.257 1.47483 14.6563C1.87328 15.065 2.35701 15.3807 2.89151 15.5809C3.40157 15.7765 3.98215 15.9115 4.83425 15.9535C5.68586 15.992 5.95639 16 8.13116 16C10.3059 16 10.577 15.9895 11.4281 15.9535C12.2802 15.9115 12.8608 15.776 13.3708 15.5809C13.9047 15.3794 14.3881 15.0639 14.7875 14.6563C15.1967 14.2583 15.5125 13.7745 15.7121 13.2397C15.9076 12.7296 16.0427 12.149 16.0847 11.2969C16.1232 10.4453 16.1312 10.1748 16.1312 8C16.1312 5.82523 16.1207 5.55419 16.0847 4.70309C16.0427 3.85098 15.9071 3.26741 15.7121 2.76035C15.5106 2.22651 15.195 1.74305 14.7875 1.34367C14.3895 0.934462 13.9056 0.618667 13.3708 0.419052C12.8608 0.221028 12.2802 0.0885111 11.4281 0.0465058C10.5765 0.008001 10.3059 0 8.13116 0ZM8.13116 1.44018C10.2669 1.44018 10.522 1.45068 11.3661 1.48669C12.1447 1.52319 12.5687 1.65321 12.8503 1.76322C13.1983 1.8917 13.5133 2.09619 13.7724 2.3618C14.0375 2.61974 14.2412 2.93404 14.3684 3.28141C14.4785 3.56295 14.6085 3.987 14.645 4.7656C14.681 5.6097 14.6915 5.86523 14.6915 8.0005C14.6915 10.1358 14.681 10.3913 14.642 11.2354C14.6 12.014 14.47 12.4381 14.3604 12.7196C14.2089 13.0951 14.0399 13.3577 13.7609 13.6417C13.501 13.9056 13.1861 14.1092 12.8388 14.2378C12.5607 14.3478 12.1307 14.4778 11.3491 14.5143C10.5005 14.5503 10.2504 14.5608 8.10916 14.5608C5.96789 14.5608 5.71836 14.5503 4.86876 14.5113C4.09016 14.4693 3.66061 14.3393 3.37907 14.2298C2.99902 14.0783 2.73849 13.9092 2.45946 13.6302C2.17792 13.3487 1.9989 13.0806 1.86088 12.7081C1.74887 12.4301 1.62085 12 1.57935 11.2184C1.55084 10.3798 1.53734 10.1198 1.53734 7.9885C1.53734 5.85823 1.55084 5.5977 1.57935 4.74859C1.62085 3.967 1.74887 3.53794 1.86088 3.25891C1.9989 2.87836 2.17842 2.61833 2.45946 2.33679C2.73799 2.05826 2.99902 1.87823 3.37907 1.73722C3.66061 1.6277 4.07966 1.49769 4.86126 1.45868C5.70986 1.42818 5.95989 1.41718 8.09816 1.41718L8.13116 1.44018ZM8.13116 3.89399C7.59177 3.89379 7.05762 3.99989 6.55925 4.20621C6.06087 4.41254 5.60804 4.71505 5.22663 5.09646C4.84522 5.47787 4.5427 5.93071 4.33638 6.42908C4.13005 6.92746 4.02395 7.4616 4.02415 8.001C4.02395 8.5404 4.13005 9.07454 4.33638 9.57292C4.5427 10.0713 4.84522 10.5241 5.22663 10.9055C5.60804 11.2869 6.06087 11.5895 6.55925 11.7958C7.05762 12.0021 7.59177 12.1082 8.13116 12.108C8.67056 12.1082 9.20471 12.0021 9.70308 11.7958C10.2015 11.5895 10.6543 11.2869 11.0357 10.9055C11.4171 10.5241 11.7196 10.0713 11.926 9.57292C12.1323 9.07454 12.2384 8.5404 12.2382 8.001C12.2384 7.4616 12.1323 6.92746 11.926 6.42908C11.7196 5.93071 11.4171 5.47787 11.0357 5.09646C10.6543 4.71505 10.2015 4.41254 9.70308 4.20621C9.20471 3.99989 8.67056 3.89379 8.13116 3.89399ZM8.13116 10.6678C6.65698 10.6678 5.46433 9.47518 5.46433 8.001C5.46433 6.52682 6.65698 5.33417 8.13116 5.33417C9.60535 5.33417 10.798 6.52682 10.798 8.001C10.798 9.47518 9.60535 10.6678 8.13116 10.6678ZM13.3638 3.72997C13.3636 3.98483 13.2621 4.22917 13.0818 4.40929C12.9015 4.58941 12.6571 4.69059 12.4022 4.69059C12.2762 4.69059 12.1514 4.66577 12.035 4.61754C11.9185 4.56931 11.8128 4.49863 11.7236 4.40952C11.6345 4.32041 11.5639 4.21462 11.5156 4.0982C11.4674 3.98177 11.4426 3.85699 11.4426 3.73097C11.4426 3.60495 11.4674 3.48016 11.5156 3.36374C11.5639 3.24731 11.6345 3.14152 11.7236 3.05241C11.8128 2.9633 11.9185 2.89262 12.035 2.84439C12.1514 2.79617 12.2762 2.77135 12.4022 2.77135C12.9308 2.77135 13.3638 3.2014 13.3638 3.72997Z" fill="url(#paint0_linear_1504_137)"/>
<defs>
<linearGradient id="paint0_linear_1504_137" x1="16.7394" y1="-0.96552" x2="-0.0873478" y2="0.0974441" gradientUnits="userSpaceOnUse">
<stop offset="0.234375" stop-color="#F5691A"/>
<stop offset="0.995667" stop-color="#FFD643"/>
</linearGradient>
</defs>
</svg>
