<svg width="16" height="16" viewBox="0 0 16 16" fill="none" xmlns="http://www.w3.org/2000/svg">
<path d="M0.362164 16H3.36216V4.9H0.362164V16ZM1.86216 0C0.862164 0 0.0621643 0.8 0.0621643 1.8C0.0621643 2.8 0.862164 3.6 1.86216 3.6C2.86216 3.6 3.66216 2.8 3.66216 1.8C3.66216 0.8 2.86216 0 1.86216 0ZM8.46216 6.6V4.9H5.46216V16H8.46216V10.3C8.46216 7.1 12.5622 6.9 12.5622 10.3V16H15.5622V9.2C15.5622 3.8 9.86216 4 8.46216 6.6Z" fill="white"/>
<path d="M0.362164 16H3.36216V4.9H0.362164V16ZM1.86216 0C0.862164 0 0.0621643 0.8 0.0621643 1.8C0.0621643 2.8 0.862164 3.6 1.86216 3.6C2.86216 3.6 3.66216 2.8 3.66216 1.8C3.66216 0.8 2.86216 0 1.86216 0ZM8.46216 6.6V4.9H5.46216V16H8.46216V10.3C8.46216 7.1 12.5622 6.9 12.5622 10.3V16H15.5622V9.2C15.5622 3.8 9.86216 4 8.46216 6.6Z" fill="url(#paint0_linear_1504_135)"/>
<defs>
<linearGradient id="paint0_linear_1504_135" x1="16.1513" y1="-0.96552" x2="-0.153507" y2="0.0322911" gradientUnits="userSpaceOnUse">
<stop offset="0.234375" stop-color="#F5691A"/>
<stop offset="0.995667" stop-color="#FFD643"/>
</linearGradient>
</defs>
</svg>
