<svg width="31" height="40" viewBox="0 0 31 40" fill="none" xmlns="http://www.w3.org/2000/svg">
<path d="M15.5576 39.7815C15.5576 39.7815 30.1232 25.9782 30.1232 15.5055C30.1232 11.6424 28.5886 7.93761 25.857 5.20603C23.1255 2.47444 19.4206 0.93985 15.5576 0.93985C11.6945 0.93985 7.98971 2.47444 5.25812 5.20603C2.52653 7.93761 0.991943 11.6424 0.991943 15.5055C0.991943 25.9782 15.5576 39.7815 15.5576 39.7815ZM15.5576 22.7883C13.6261 22.7883 11.7736 22.021 10.4079 20.6552C9.04206 19.2894 8.27476 17.437 8.27476 15.5055C8.27476 13.574 9.04206 11.7215 10.4079 10.3558C11.7736 8.98996 13.6261 8.22267 15.5576 8.22267C17.4891 8.22267 19.3415 8.98996 20.7073 10.3558C22.0731 11.7215 22.8404 13.574 22.8404 15.5055C22.8404 17.437 22.0731 19.2894 20.7073 20.6552C19.3415 22.021 17.4891 22.7883 15.5576 22.7883Z" fill="white"/>
</svg>
