<svg width="30" height="40" viewBox="0 0 30 40" fill="none" xmlns="http://www.w3.org/2000/svg">
<path fill-rule="evenodd" clip-rule="evenodd" d="M15.3735 32.5471C17.2799 32.5471 19.1081 31.7899 20.4561 30.4419C21.804 29.0939 22.5613 27.2657 22.5613 25.3594C22.5613 23.4531 21.804 21.6248 20.4561 20.2769C19.1081 18.9289 17.2799 18.1716 15.3735 18.1716C13.4672 18.1716 11.639 18.9289 10.291 20.2769C8.94307 21.6248 8.18579 23.4531 8.18579 25.3594C8.18579 27.2657 8.94307 29.0939 10.291 30.4419C11.639 31.7899 13.4672 32.5471 15.3735 32.5471ZM15.3735 28.9533C16.3267 28.9533 17.2408 28.5746 17.9148 27.9006C18.5888 27.2267 18.9674 26.3125 18.9674 25.3594C18.9674 24.4062 18.5888 23.4921 17.9148 22.8181C17.2408 22.1441 16.3267 21.7655 15.3735 21.7655C14.4204 21.7655 13.5063 22.1441 12.8323 22.8181C12.1583 23.4921 11.7797 24.4062 11.7797 25.3594C11.7797 26.3125 12.1583 27.2267 12.8323 27.9006C13.5063 28.5746 14.4204 28.9533 15.3735 28.9533Z" fill="white"/>
<path d="M15.3735 14.7664C16.3267 14.7664 17.2408 14.3877 17.9148 13.7137C18.5888 13.0398 18.9674 12.1256 18.9674 11.1725C18.9674 10.2193 18.5888 9.30522 17.9148 8.63124C17.2408 7.95725 16.3267 7.57861 15.3735 7.57861C14.4204 7.57861 13.5063 7.95725 12.8323 8.63124C12.1583 9.30522 11.7797 10.2193 11.7797 11.1725C11.7797 12.1256 12.1583 13.0398 12.8323 13.7137C13.5063 14.3877 14.4204 14.7664 15.3735 14.7664Z" fill="white"/>
<path fill-rule="evenodd" clip-rule="evenodd" d="M6.38887 0.311768C4.95913 0.311768 3.58796 0.879727 2.57698 1.8907C1.56601 2.90168 0.998047 4.27285 0.998047 5.70259V34.4536C0.998047 35.8834 1.56601 37.2545 2.57698 38.2655C3.58796 39.2765 4.95913 39.8444 6.38887 39.8444H24.3583C25.788 39.8444 27.1592 39.2765 28.1701 38.2655C29.1811 37.2545 29.7491 35.8834 29.7491 34.4536V5.70259C29.7491 4.27285 29.1811 2.90168 28.1701 1.8907C27.1592 0.879727 25.788 0.311768 24.3583 0.311768H6.38887ZM24.3583 3.90565H6.38887C5.91229 3.90565 5.45523 4.09497 5.11824 4.43196C4.78125 4.76895 4.59193 5.22601 4.59193 5.70259V34.4536C4.59193 34.9302 4.78125 35.3873 5.11824 35.7243C5.45523 36.0612 5.91229 36.2506 6.38887 36.2506H24.3583C24.8348 36.2506 25.2919 36.0612 25.6289 35.7243C25.9659 35.3873 26.1552 34.9302 26.1552 34.4536V5.70259C26.1552 5.22601 25.9659 4.76895 25.6289 4.43196C25.2919 4.09497 24.8348 3.90565 24.3583 3.90565Z" fill="white"/>
</svg>
