<svg width="34" height="34" viewBox="0 0 34 34" fill="none" xmlns="http://www.w3.org/2000/svg">
<path d="M23.4296 11.9933V8.65999H16.7629V17.8267C16.0629 17.31 15.2129 16.9933 14.2629 16.9933C13.1579 16.9933 12.0981 17.4323 11.3167 18.2137C10.5353 18.9951 10.0963 20.0549 10.0963 21.16C10.0963 22.2651 10.5353 23.3249 11.3167 24.1063C12.0981 24.8877 13.1579 25.3267 14.2629 25.3267C15.368 25.3267 16.4278 24.8877 17.2092 24.1063C17.9906 23.3249 18.4296 22.2651 18.4296 21.16V11.9933H23.4296ZM16.7629 0.32666C18.9516 0.32666 21.1189 0.757756 23.141 1.59533C25.1631 2.43291 27.0004 3.66057 28.548 5.20821C30.0957 6.75586 31.3234 8.59318 32.1609 10.6153C32.9985 12.6374 33.4296 14.8046 33.4296 16.9933C33.4296 21.4136 31.6737 25.6528 28.548 28.7784C25.4224 31.904 21.1832 33.66 16.7629 33.66C14.5742 33.66 12.407 33.2289 10.3849 32.3913C8.36278 31.5537 6.52546 30.3261 4.97782 28.7784C1.85222 25.6528 0.0962677 21.4136 0.0962677 16.9933C0.0962677 12.5731 1.85222 8.33382 4.97782 5.20821C8.10343 2.08261 12.3427 0.32666 16.7629 0.32666Z" fill="white"/>
</svg>
