<svg width="98" height="98" viewBox="0 0 98 98" fill="none" xmlns="http://www.w3.org/2000/svg">
<path d="M83.05 31.85C82.6825 29.9717 81.0084 28.5833 79.0484 28.5833H20.4117C18.4517 28.5833 16.7775 29.9717 16.41 31.85L12.3267 52.2667C11.8367 54.7983 13.7559 57.1667 16.3284 57.1667H17.0634V77.5833C17.0634 79.8292 18.9009 81.6667 21.1467 81.6667H53.8134C56.0592 81.6667 57.8967 79.8292 57.8967 77.5833V57.1667H74.23V77.5833C74.23 79.8292 76.0675 81.6667 78.3134 81.6667C80.5592 81.6667 82.3967 79.8292 82.3967 77.5833V57.1667H83.1317C85.7042 57.1667 87.6234 54.7983 87.1334 52.2667L83.05 31.85ZM49.73 73.5H25.23V57.1667H49.73V73.5Z" fill="#F9A11B"/>
<rect x="11.7173" y="14.913" width="75.6304" height="6.3913" rx="3.19565" fill="#33303E"/>
</svg>
