<svg width="40" height="40" viewBox="0 0 40 40" fill="none" xmlns="http://www.w3.org/2000/svg">
<path d="M30.6355 5.0824H13.6943C11.3413 5.0824 9.45898 6.96475 9.45898 9.31769V12.1412H12.2825V9.31769C12.2825 8.51769 12.8943 7.90593 13.6943 7.90593H30.6355C31.4355 7.90593 32.0472 8.51769 32.0472 9.31769V26.2589C32.0472 27.0589 31.4355 27.6706 30.6355 27.6706H27.8119V30.4942H30.6355C32.9884 30.4942 34.8708 28.6118 34.8708 26.2589V9.31769C34.8708 7.01181 32.9413 5.0824 30.6355 5.0824Z" fill="white"/>
<path d="M30.6355 5.0824H13.6943C11.3413 5.0824 9.45898 6.96475 9.45898 9.31769V12.1412H12.2825V9.31769C12.2825 8.51769 12.8943 7.90593 13.6943 7.90593H30.6355C31.4355 7.90593 32.0472 8.51769 32.0472 9.31769V26.2589C32.0472 27.0589 31.4355 27.6706 30.6355 27.6706H27.8119V30.4942H30.6355C32.9884 30.4942 34.8708 28.6118 34.8708 26.2589V9.31769C34.8708 7.01181 32.9413 5.0824 30.6355 5.0824Z" fill="url(#paint0_linear_444_3164)"/>
<path d="M9.45832 19.8117V26.3058C9.45832 28.6588 11.3407 30.5411 13.6936 30.5411H20.1877L17.8348 32.8941L19.8113 34.8705L24.5642 30.1176C25.1289 29.5529 25.1289 28.6588 24.5642 28.1411L19.8113 23.3882L17.8348 25.3647L20.1877 27.7176H13.6936C12.8936 27.7176 12.2819 27.1058 12.2819 26.3058V19.8117L14.6348 22.1647L16.6113 20.1882L11.8583 15.4352C11.2936 14.8705 10.3995 14.8705 9.88184 15.4352L5.12891 20.1882L7.10538 22.1647L9.45832 19.8117Z" fill="white"/>
<path d="M9.45832 19.8117V26.3058C9.45832 28.6588 11.3407 30.5411 13.6936 30.5411H20.1877L17.8348 32.8941L19.8113 34.8705L24.5642 30.1176C25.1289 29.5529 25.1289 28.6588 24.5642 28.1411L19.8113 23.3882L17.8348 25.3647L20.1877 27.7176H13.6936C12.8936 27.7176 12.2819 27.1058 12.2819 26.3058V19.8117L14.6348 22.1647L16.6113 20.1882L11.8583 15.4352C11.2936 14.8705 10.3995 14.8705 9.88184 15.4352L5.12891 20.1882L7.10538 22.1647L9.45832 19.8117Z" fill="url(#paint1_linear_444_3164)"/>
<defs>
<linearGradient id="paint0_linear_444_3164" x1="35.8367" y1="3.54892" x2="9.11194" y2="5.23716" gradientUnits="userSpaceOnUse">
<stop offset="0.234375" stop-color="#F5691A"/>
<stop offset="0.995667" stop-color="#FFD643"/>
</linearGradient>
<linearGradient id="paint1_linear_444_3164" x1="25.7426" y1="13.8133" x2="4.85769" y2="15.1327" gradientUnits="userSpaceOnUse">
<stop offset="0.234375" stop-color="#F5691A"/>
<stop offset="0.995667" stop-color="#FFD643"/>
</linearGradient>
</defs>
</svg>
