<svg width="22" height="22" viewBox="0 0 22 22" fill="none" xmlns="http://www.w3.org/2000/svg">
<path d="M11 1L14.09 7.26L21 8.27L16 13.14L17.18 20.02L11 16.77L4.82 20.02L6 13.14L1 8.27L7.91 7.26L11 1Z" fill="white"/>
<path d="M11 1L14.09 7.26L21 8.27L16 13.14L17.18 20.02L11 16.77L4.82 20.02L6 13.14L1 8.27L7.91 7.26L11 1Z" fill="url(#paint0_linear_1742_1654)"/>
<path d="M11 1L14.09 7.26L21 8.27L16 13.14L17.18 20.02L11 16.77L4.82 20.02L6 13.14L1 8.27L7.91 7.26L11 1Z" stroke="white" stroke-width="2" stroke-linecap="round" stroke-linejoin="round"/>
<path d="M11 1L14.09 7.26L21 8.27L16 13.14L17.18 20.02L11 16.77L4.82 20.02L6 13.14L1 8.27L7.91 7.26L11 1Z" stroke="url(#paint1_linear_1742_1654)" stroke-width="2" stroke-linecap="round" stroke-linejoin="round"/>
<defs>
<linearGradient id="paint0_linear_1742_1654" x1="21.7602" y1="-0.147762" x2="0.735693" y2="1.24882" gradientUnits="userSpaceOnUse">
<stop offset="0.234375" stop-color="#F5691A"/>
<stop offset="0.995667" stop-color="#FFD643"/>
</linearGradient>
<linearGradient id="paint1_linear_1742_1654" x1="21.7602" y1="-0.147762" x2="0.735693" y2="1.24882" gradientUnits="userSpaceOnUse">
<stop offset="0.234375" stop-color="#F5691A"/>
<stop offset="0.995667" stop-color="#FFD643"/>
</linearGradient>
</defs>
</svg>
