<svg width="24" height="25" viewBox="0 0 24 25" fill="none" xmlns="http://www.w3.org/2000/svg">
<g opacity="0.3">
<path fill-rule="evenodd" clip-rule="evenodd" d="M11 3.24951C11 2.69723 11.4477 2.24951 12 2.24951C12.5523 2.24951 13 2.69723 13 3.24951V5.24951C13 5.8018 12.5523 6.24951 12 6.24951C11.4477 6.24951 11 5.8018 11 5.24951V3.24951ZM3 11.2495C2.44772 11.2495 2 11.6972 2 12.2495C2 12.8018 2.44772 13.2495 3 13.2495H5C5.55228 13.2495 6 12.8018 6 12.2495C6 11.6972 5.55228 11.2495 5 11.2495H3ZM19 11.2495C18.4477 11.2495 18 11.6972 18 12.2495C18 12.8018 18.4477 13.2495 19 13.2495H21C21.5522 13.2495 22 12.8018 22 12.2495C22 11.6972 21.5522 11.2495 21 11.2495H19ZM12 18.2495C11.4477 18.2495 11 18.6972 11 19.2495V21.2495C11 21.8018 11.4477 22.2495 12 22.2495C12.5523 22.2495 13 21.8018 13 21.2495V19.2495C13 18.6972 12.5523 18.2495 12 18.2495Z" fill="white"/>
<path fill-rule="evenodd" clip-rule="evenodd" d="M11 3.24951C11 2.69723 11.4477 2.24951 12 2.24951C12.5523 2.24951 13 2.69723 13 3.24951V5.24951C13 5.8018 12.5523 6.24951 12 6.24951C11.4477 6.24951 11 5.8018 11 5.24951V3.24951ZM3 11.2495C2.44772 11.2495 2 11.6972 2 12.2495C2 12.8018 2.44772 13.2495 3 13.2495H5C5.55228 13.2495 6 12.8018 6 12.2495C6 11.6972 5.55228 11.2495 5 11.2495H3ZM19 11.2495C18.4477 11.2495 18 11.6972 18 12.2495C18 12.8018 18.4477 13.2495 19 13.2495H21C21.5522 13.2495 22 12.8018 22 12.2495C22 11.6972 21.5522 11.2495 21 11.2495H19ZM12 18.2495C11.4477 18.2495 11 18.6972 11 19.2495V21.2495C11 21.8018 11.4477 22.2495 12 22.2495C12.5523 22.2495 13 21.8018 13 21.2495V19.2495C13 18.6972 12.5523 18.2495 12 18.2495Z" fill="url(#paint0_linear_442_2275)"/>
</g>
<g opacity="0.3">
<path fill-rule="evenodd" clip-rule="evenodd" d="M12 14.2495C13.1046 14.2495 14 13.3541 14 12.2495C14 11.1449 13.1046 10.2495 12 10.2495C10.8954 10.2495 10 11.1449 10 12.2495C10 13.3541 10.8954 14.2495 12 14.2495Z" fill="white"/>
<path fill-rule="evenodd" clip-rule="evenodd" d="M12 14.2495C13.1046 14.2495 14 13.3541 14 12.2495C14 11.1449 13.1046 10.2495 12 10.2495C10.8954 10.2495 10 11.1449 10 12.2495C10 13.3541 10.8954 14.2495 12 14.2495Z" fill="url(#paint1_linear_442_2275)"/>
</g>
<path fill-rule="evenodd" clip-rule="evenodd" d="M5 12.2495C5 16.1155 8.13401 19.2495 12 19.2495C15.866 19.2495 19 16.1155 19 12.2495C19 8.38352 15.866 5.24951 12 5.24951C8.13401 5.24951 5 8.38352 5 12.2495ZM17 12.2495C17 15.0109 14.7615 17.2495 12 17.2495C9.23862 17.2495 7.00004 15.0109 7.00004 12.2495C7.00004 9.48808 9.23862 7.24951 12 7.24951C14.7615 7.24951 17 9.48808 17 12.2495Z" fill="white"/>
<path fill-rule="evenodd" clip-rule="evenodd" d="M5 12.2495C5 16.1155 8.13401 19.2495 12 19.2495C15.866 19.2495 19 16.1155 19 12.2495C19 8.38352 15.866 5.24951 12 5.24951C8.13401 5.24951 5 8.38352 5 12.2495ZM17 12.2495C17 15.0109 14.7615 17.2495 12 17.2495C9.23862 17.2495 7.00004 15.0109 7.00004 12.2495C7.00004 9.48808 9.23862 7.24951 12 7.24951C14.7615 7.24951 17 9.48808 17 12.2495Z" fill="url(#paint2_linear_442_2275)"/>
<defs>
<linearGradient id="paint0_linear_442_2275" x1="22.7602" y1="1.04261" x2="1.72686" y2="2.37132" gradientUnits="userSpaceOnUse">
<stop offset="0.234375" stop-color="#F5691A"/>
<stop offset="0.995667" stop-color="#FFD643"/>
</linearGradient>
<linearGradient id="paint1_linear_442_2275" x1="14.152" y1="10.0081" x2="9.94537" y2="10.2739" gradientUnits="userSpaceOnUse">
<stop offset="0.234375" stop-color="#F5691A"/>
<stop offset="0.995667" stop-color="#FFD643"/>
</linearGradient>
<linearGradient id="paint2_linear_442_2275" x1="19.5322" y1="4.40468" x2="4.8088" y2="5.33478" gradientUnits="userSpaceOnUse">
<stop offset="0.234375" stop-color="#F5691A"/>
<stop offset="0.995667" stop-color="#FFD643"/>
</linearGradient>
</defs>
</svg>
