<svg width="20" height="16" viewBox="0 0 20 16" fill="none" xmlns="http://www.w3.org/2000/svg">
<path d="M19.8258 1.9006C19.1016 2.21303 18.3134 2.43788 17.5016 2.52545C18.3444 2.02471 18.9756 1.23362 19.2767 0.300601C18.4858 0.771108 17.6193 1.10104 16.7158 1.27575C16.3381 0.872024 15.8814 0.5504 15.374 0.330915C14.8666 0.11143 14.3195 -0.00121132 13.7667 9.82343e-06C11.53 9.82343e-06 9.73116 1.81303 9.73116 4.03788C9.73116 4.3503 9.76903 4.66273 9.83057 4.96332C6.48146 4.78817 3.49448 3.18817 1.50868 0.738471C1.14685 1.3565 0.957232 2.06019 0.959566 2.77634C0.959566 4.17752 1.67199 5.41302 2.75838 6.13965C2.11816 6.11444 1.49292 5.93846 0.933531 5.62604V5.67575C0.933531 7.63787 2.32051 9.26391 4.16903 9.63787C3.82195 9.72803 3.46491 9.77415 3.10631 9.77515C2.84359 9.77515 2.59507 9.74912 2.34418 9.71361C2.85542 11.3136 4.34418 12.4757 6.11696 12.5136C4.72998 13.6 2.9927 14.2391 1.10631 14.2391C0.767851 14.2391 0.455425 14.2272 0.131165 14.1894C1.92051 15.3373 4.04359 16 6.32998 16C13.7525 16 17.814 9.85089 17.814 4.51362C17.814 4.33847 17.814 4.16332 17.8022 3.98817C18.588 3.41303 19.2767 2.7006 19.8258 1.9006Z" fill="white"/>
<path d="M19.8258 1.9006C19.1016 2.21303 18.3134 2.43788 17.5016 2.52545C18.3444 2.02471 18.9756 1.23362 19.2767 0.300601C18.4858 0.771108 17.6193 1.10104 16.7158 1.27575C16.3381 0.872024 15.8814 0.5504 15.374 0.330915C14.8666 0.11143 14.3195 -0.00121132 13.7667 9.82343e-06C11.53 9.82343e-06 9.73116 1.81303 9.73116 4.03788C9.73116 4.3503 9.76903 4.66273 9.83057 4.96332C6.48146 4.78817 3.49448 3.18817 1.50868 0.738471C1.14685 1.3565 0.957232 2.06019 0.959566 2.77634C0.959566 4.17752 1.67199 5.41302 2.75838 6.13965C2.11816 6.11444 1.49292 5.93846 0.933531 5.62604V5.67575C0.933531 7.63787 2.32051 9.26391 4.16903 9.63787C3.82195 9.72803 3.46491 9.77415 3.10631 9.77515C2.84359 9.77515 2.59507 9.74912 2.34418 9.71361C2.85542 11.3136 4.34418 12.4757 6.11696 12.5136C4.72998 13.6 2.9927 14.2391 1.10631 14.2391C0.767851 14.2391 0.455425 14.2272 0.131165 14.1894C1.92051 15.3373 4.04359 16 6.32998 16C13.7525 16 17.814 9.85089 17.814 4.51362C17.814 4.33847 17.814 4.16332 17.8022 3.98817C18.588 3.41303 19.2767 2.7006 19.8258 1.9006Z" fill="url(#paint0_linear_1504_138)"/>
<defs>
<linearGradient id="paint0_linear_1504_138" x1="20.5745" y1="-0.96552" x2="-0.0954819" y2="0.641745" gradientUnits="userSpaceOnUse">
<stop offset="0.234375" stop-color="#F5691A"/>
<stop offset="0.995667" stop-color="#FFD643"/>
</linearGradient>
</defs>
</svg>
