<svg width="30" height="30" viewBox="0 0 30 30" fill="none" xmlns="http://www.w3.org/2000/svg">
<path d="M15 12.5C17.4162 12.5 19.375 10.5412 19.375 8.125C19.375 5.70876 17.4162 3.75 15 3.75C12.5837 3.75 10.625 5.70876 10.625 8.125C10.625 10.5412 12.5837 12.5 15 12.5Z" stroke="#33303E" stroke-width="2.25" stroke-linecap="square"/>
<path d="M5 26.25V25.5C5 22.6997 5 21.2996 5.54497 20.23C6.02433 19.2892 6.78924 18.5243 7.73006 18.0449C8.79962 17.5 10.1997 17.5 13 17.5H17C19.8002 17.5 21.2004 17.5 22.2699 18.0449C23.2107 18.5243 23.9757 19.2892 24.4551 20.23C25 21.2996 25 22.6997 25 25.5V26.25" stroke="#33303E" stroke-width="2.25" stroke-linecap="square"/>
</svg>
