<svg width="32" height="32" viewBox="0 0 32 32" fill="none" xmlns="http://www.w3.org/2000/svg">
<path d="M15.9993 14.6667C13.0538 14.6667 10.666 12.2789 10.666 9.33333C10.666 6.38781 13.0538 4 15.9993 4C18.9449 4 21.3327 6.38781 21.3327 9.33333C21.3327 12.2789 18.9449 14.6667 15.9993 14.6667Z" fill="white"/>
<path d="M15.9993 14.6667C13.0538 14.6667 10.666 12.2789 10.666 9.33333C10.666 6.38781 13.0538 4 15.9993 4C18.9449 4 21.3327 6.38781 21.3327 9.33333C21.3327 12.2789 18.9449 14.6667 15.9993 14.6667Z" fill="url(#paint0_linear_444_3166)"/>
<path d="M4.00087 26.9323C4.51768 20.5687 9.68255 17.3334 15.9778 17.3334C22.3616 17.3334 27.6065 20.391 27.9972 26.9334C28.0128 27.194 27.9972 28 26.9956 28C22.0548 28 14.713 28 4.97 28C4.63562 28 3.97272 27.2789 4.00087 26.9323Z" fill="white"/>
<path d="M4.00087 26.9323C4.51768 20.5687 9.68255 17.3334 15.9778 17.3334C22.3616 17.3334 27.6065 20.391 27.9972 26.9334C28.0128 27.194 27.9972 28 26.9956 28C22.0548 28 14.713 28 4.97 28C4.63562 28 3.97272 27.2789 4.00087 26.9323Z" fill="url(#paint1_linear_444_3166)"/>
<defs>
<linearGradient id="paint0_linear_444_3166" x1="21.7381" y1="3.35632" x2="10.5203" y2="4.06496" gradientUnits="userSpaceOnUse">
<stop offset="0.234375" stop-color="#F5691A"/>
<stop offset="0.995667" stop-color="#FFD643"/>
</linearGradient>
<linearGradient id="paint1_linear_444_3166" x1="28.9123" y1="16.6897" x2="4.07332" y2="20.2202" gradientUnits="userSpaceOnUse">
<stop offset="0.234375" stop-color="#F5691A"/>
<stop offset="0.995667" stop-color="#FFD643"/>
</linearGradient>
</defs>
</svg>
