<svg width="30" height="30" viewBox="0 0 30 30" fill="none" xmlns="http://www.w3.org/2000/svg">
<path d="M4.57143 13H2.5V25.4286C2.5 25.9779 2.71824 26.5048 3.10671 26.8933C3.49518 27.2818 4.02205 27.5 4.57143 27.5H17V25.4286H4.57143V13Z" fill="#F9A11B"/>
<path d="M22.6875 5H8.8125C8.19919 5 7.61099 5.24364 7.17732 5.67732C6.74364 6.11099 6.5 6.69919 6.5 7.3125V21.1875C6.5 21.8008 6.74364 22.389 7.17732 22.8227C7.61099 23.2564 8.19919 23.5 8.8125 23.5H22.6875C23.3008 23.5 23.889 23.2564 24.3227 22.8227C24.7564 22.389 25 21.8008 25 21.1875V7.3125C25 6.69919 24.7564 6.11099 24.3227 5.67732C23.889 5.24364 23.3008 5 22.6875 5ZM12.2812 18.875V9.625L20.375 14.25L12.2812 18.875Z" fill="#F9A11B"/>
</svg>
