<svg width="30" height="30" viewBox="0 0 30 30" fill="none" xmlns="http://www.w3.org/2000/svg">
<path d="M20.9833 17.2496C20.6733 17.0903 19.1285 16.3336 18.8412 16.2312C18.5538 16.1231 18.3433 16.0719 18.1356 16.3905C17.9251 16.7063 17.3277 17.409 17.14 17.6223C16.9579 17.8328 16.773 17.8584 16.4629 17.702C14.6194 16.7802 13.4104 16.0576 12.1956 13.9724C11.8741 13.4176 12.5171 13.4575 13.1173 12.2598C13.2197 12.0493 13.1685 11.87 13.0889 11.7107C13.0092 11.5514 12.3834 10.0095 12.1216 9.38078C11.8684 8.76914 11.6067 8.85448 11.4161 8.84311C11.234 8.83173 11.0264 8.83173 10.8158 8.83173C10.6053 8.83173 10.2668 8.91138 9.97946 9.22147C9.69213 9.53725 8.88135 10.2968 8.88135 11.8387C8.88135 13.3806 10.0051 14.8742 10.1587 15.0847C10.318 15.2952 12.3691 18.4587 15.5184 19.8214C17.5098 20.6805 18.2893 20.7545 19.285 20.6066C19.8909 20.5155 21.1398 19.8498 21.3987 19.113C21.6576 18.379 21.6576 17.7503 21.5808 17.6195C21.504 17.4801 21.2934 17.4004 20.9833 17.2496Z" fill="white"/>
<path d="M20.9833 17.2496C20.6733 17.0903 19.1285 16.3336 18.8412 16.2312C18.5538 16.1231 18.3433 16.0719 18.1356 16.3905C17.9251 16.7063 17.3277 17.409 17.14 17.6223C16.9579 17.8328 16.773 17.8584 16.4629 17.702C14.6194 16.7802 13.4104 16.0576 12.1956 13.9724C11.8741 13.4176 12.5171 13.4575 13.1173 12.2598C13.2197 12.0493 13.1685 11.87 13.0889 11.7107C13.0092 11.5514 12.3834 10.0095 12.1216 9.38078C11.8684 8.76914 11.6067 8.85448 11.4161 8.84311C11.234 8.83173 11.0264 8.83173 10.8158 8.83173C10.6053 8.83173 10.2668 8.91138 9.97946 9.22147C9.69213 9.53725 8.88135 10.2968 8.88135 11.8387C8.88135 13.3806 10.0051 14.8742 10.1587 15.0847C10.318 15.2952 12.3691 18.4587 15.5184 19.8214C17.5098 20.6805 18.2893 20.7545 19.285 20.6066C19.8909 20.5155 21.1398 19.8498 21.3987 19.113C21.6576 18.379 21.6576 17.7503 21.5808 17.6195C21.504 17.4801 21.2934 17.4004 20.9833 17.2496Z" fill="url(#paint0_linear_420_1110)"/>
<path d="M27.0059 9.81036C26.3629 8.28268 25.4412 6.91146 24.2663 5.73369C23.0914 4.55877 21.7201 3.63419 20.1896 2.9941C18.6249 2.33694 16.9636 2.00409 15.251 2.00409H15.1941C13.4701 2.01262 11.8001 2.35401 10.2298 3.02539C8.71349 3.67402 7.35365 4.59575 6.1901 5.77067C5.02656 6.9456 4.11336 8.31112 3.4818 9.83312C2.82749 11.4092 2.49749 13.0848 2.50602 14.8088C2.51456 16.7831 2.9868 18.7432 3.87155 20.4956V24.8198C3.87155 25.5424 4.45759 26.1284 5.18018 26.1284H9.5072C11.2596 27.0132 13.2197 27.4854 15.1941 27.494H15.2538C16.9579 27.494 18.6107 27.164 20.1669 26.5182C21.6889 25.8838 23.0572 24.9734 24.2293 23.8099C25.4042 22.6463 26.3288 21.2865 26.9746 19.7702C27.646 18.1998 27.9874 16.5299 27.9959 14.8059C28.0044 13.0734 27.6687 11.3921 27.0059 9.81036V9.81036ZM22.7073 22.2708C20.7131 24.2451 18.0674 25.3319 15.251 25.3319H15.2026C13.4871 25.3233 11.7831 24.8966 10.2782 24.0944L10.0392 23.9663H6.03364V19.9608L5.90562 19.7218C5.10337 18.2169 4.67664 16.5128 4.66811 14.7974C4.65673 11.9611 5.74062 9.29829 7.72917 7.29267C9.71487 5.28705 12.3691 4.17756 15.2054 4.16618H15.2538C16.6762 4.16618 18.056 4.44213 19.3561 4.98834C20.6249 5.52032 21.7628 6.28559 22.7414 7.26422C23.7172 8.24 24.4853 9.38079 25.0173 10.6496C25.5692 11.9639 25.8452 13.3579 25.8395 14.7974C25.8224 17.6309 24.7101 20.2851 22.7073 22.2708V22.2708Z" fill="white"/>
<path d="M27.0059 9.81036C26.3629 8.28268 25.4412 6.91146 24.2663 5.73369C23.0914 4.55877 21.7201 3.63419 20.1896 2.9941C18.6249 2.33694 16.9636 2.00409 15.251 2.00409H15.1941C13.4701 2.01262 11.8001 2.35401 10.2298 3.02539C8.71349 3.67402 7.35365 4.59575 6.1901 5.77067C5.02656 6.9456 4.11336 8.31112 3.4818 9.83312C2.82749 11.4092 2.49749 13.0848 2.50602 14.8088C2.51456 16.7831 2.9868 18.7432 3.87155 20.4956V24.8198C3.87155 25.5424 4.45759 26.1284 5.18018 26.1284H9.5072C11.2596 27.0132 13.2197 27.4854 15.1941 27.494H15.2538C16.9579 27.494 18.6107 27.164 20.1669 26.5182C21.6889 25.8838 23.0572 24.9734 24.2293 23.8099C25.4042 22.6463 26.3288 21.2865 26.9746 19.7702C27.646 18.1998 27.9874 16.5299 27.9959 14.8059C28.0044 13.0734 27.6687 11.3921 27.0059 9.81036V9.81036ZM22.7073 22.2708C20.7131 24.2451 18.0674 25.3319 15.251 25.3319H15.2026C13.4871 25.3233 11.7831 24.8966 10.2782 24.0944L10.0392 23.9663H6.03364V19.9608L5.90562 19.7218C5.10337 18.2169 4.67664 16.5128 4.66811 14.7974C4.65673 11.9611 5.74062 9.29829 7.72917 7.29267C9.71487 5.28705 12.3691 4.17756 15.2054 4.16618H15.2538C16.6762 4.16618 18.056 4.44213 19.3561 4.98834C20.6249 5.52032 21.7628 6.28559 22.7414 7.26422C23.7172 8.24 24.4853 9.38079 25.0173 10.6496C25.5692 11.9639 25.8452 13.3579 25.8395 14.7974C25.8224 17.6309 24.7101 20.2851 22.7073 22.2708V22.2708Z" fill="url(#paint1_linear_420_1110)"/>
<defs>
<linearGradient id="paint0_linear_420_1110" x1="22.1098" y1="8.11752" x2="8.71579" y2="9.0286" gradientUnits="userSpaceOnUse">
<stop offset="0.234375" stop-color="#F5691A"/>
<stop offset="0.995667" stop-color="#FFD643"/>
</linearGradient>
<linearGradient id="paint1_linear_420_1110" x1="28.965" y1="0.465903" x2="2.15774" y2="2.15937" gradientUnits="userSpaceOnUse">
<stop offset="0.234375" stop-color="#F5691A"/>
<stop offset="0.995667" stop-color="#FFD643"/>
</linearGradient>
</defs>
</svg>
